<svg xmlns="http://www.w3.org/2000/svg" xmlns:xlink="http://www.w3.org/1999/xlink" contentStyleType="text/css" data-diagram-type="CLASS" height="558px" preserveAspectRatio="none" style="width:978px;height:558px;background:#FFFFFF;" version="1.1" viewBox="0 0 978 558" width="978px" zoomAndPan="magnify"><defs/><g><!--class DominoTile--><g class="entity" data-entity="DominoTile" data-source-line="3" data-uid="ent0002" id="entity_DominoTile"><rect fill="#FFFFFF" height="60.2969" rx="2.5" ry="2.5" style="stroke:#000000;stroke-width:1;" width="115.5264" x="61.19" y="77.18"/><ellipse cx="77.9117" cy="91.18" fill="#FFFFFF" rx="9" ry="9" style="stroke:#000000;stroke-width:1;"/><path d="M77.3961,91.7425 Q75.5367,91.0394 74.8805,90.2738 Q74.2399,89.4925 74.2399,88.18 Q74.2399,86.4925 75.318,85.5238 Q76.3961,84.555 78.2711,84.555 Q79.1305,84.555 79.9742,84.7581 Q80.8336,84.9456 81.6774,85.3363 L81.6774,87.7269 Q80.8961,87.1644 80.068,86.8831 Q79.2555,86.5863 78.4586,86.5863 Q77.5836,86.5863 77.0992,86.9456 Q76.6305,87.305 76.6305,87.9613 Q76.6305,88.4769 76.9742,88.8206 Q77.318,89.1488 78.4117,89.555 L79.4742,89.9613 Q80.9586,90.5081 81.6617,91.4144 Q82.3805,92.3206 82.3805,93.6956 Q82.3805,95.5706 81.2711,96.4925 Q80.1617,97.4144 77.9117,97.4144 Q76.9899,97.4144 76.068,97.1956 Q75.1461,96.9769 74.2867,96.555 L74.2867,94.0238 Q75.2555,94.7113 76.1774,95.055 Q77.0992,95.3988 77.9899,95.3988 Q78.8961,95.3988 79.3961,94.9925 Q79.8961,94.5706 79.8961,93.8363 Q79.8961,93.2738 79.5524,92.8675 Q79.2242,92.4456 78.5992,92.1956 L77.3961,91.7425 Z " fill="#000000"/><text fill="#000000" font-family="Verdana" font-size="14" lengthAdjust="spacing" textLength="79.2559" x="90.7388" y="96.0267">DominoTile</text><line style="stroke:#000000;stroke-width:1;" x1="62.19" x2="175.7164" y1="105.18" y2="105.18"/><ellipse cx="72.19" cy="118.8284" fill="none" rx="3" ry="3" style="stroke:#000000;stroke-width:1;"/><text fill="#000000" font-family="Verdana" font-size="14" lengthAdjust="spacing" textLength="91.5264" x="79.19" y="122.1751">pair&lt;int,int&gt;</text><line style="stroke:#000000;stroke-width:1;" x1="62.19" x2="175.7164" y1="129.4769" y2="129.4769"/></g><!--class CRandom--><g class="entity" data-entity="CRandom" data-source-line="8" data-uid="ent0003" id="entity_CRandom"><rect fill="#FFFFFF" height="125.4844" rx="2.5" ry="2.5" style="stroke:#000000;stroke-width:1;" width="287.2725" x="211.32" y="44.59"/><ellipse cx="317.1838" cy="58.59" fill="#FFFFFF" rx="9" ry="9" style="stroke:#000000;stroke-width:1;"/><path d="M320.1525,64.2306 Q319.5744,64.5275 318.9338,64.6681 Q318.2931,64.8244 317.59,64.8244 Q315.09,64.8244 313.7619,63.1838 Q312.4494,61.5275 312.4494,58.4025 Q312.4494,55.2775 313.7619,53.6213 Q315.09,51.965 317.59,51.965 Q318.2931,51.965 318.9338,52.1213 Q319.59,52.2775 320.1525,52.5744 L320.1525,55.2931 Q319.5275,54.715 318.9338,54.4494 Q318.34,54.1681 317.715,54.1681 Q316.3713,54.1681 315.6838,55.2463 Q314.9963,56.3088 314.9963,58.4025 Q314.9963,60.4963 315.6838,61.5744 Q316.3713,62.6369 317.715,62.6369 Q318.34,62.6369 318.9338,62.3713 Q319.5275,62.09 320.1525,61.5119 L320.1525,64.2306 Z " fill="#000000"/><text fill="#000000" font-family="Verdana" font-size="14" lengthAdjust="spacing" textLength="68.0449" x="334.6838" y="63.4367">CRandom</text><line style="stroke:#000000;stroke-width:1;" x1="212.32" x2="497.5925" y1="72.59" y2="72.59"/><rect fill="none" height="6" style="stroke:#000000;stroke-width:1;" width="6" x="219.32" y="83.2384"/><text fill="#000000" font-family="Verdana" font-size="14" lengthAdjust="spacing" textLength="100.7959" x="229.32" y="89.5851">rng : mt19937</text><line style="stroke:#000000;stroke-width:1;" x1="212.32" x2="497.5925" y1="96.8869" y2="96.8869"/><ellipse cx="222.32" cy="110.5353" fill="#FFFFFF" rx="3" ry="3" style="stroke:#000000;stroke-width:1;"/><text fill="#000000" font-family="Verdana" font-size="14" lengthAdjust="spacing" textLength="83.4189" x="229.32" y="113.882">CRandom ()</text><ellipse cx="222.32" cy="126.8322" fill="#FFFFFF" rx="3" ry="3" style="stroke:#000000;stroke-width:1;"/><text fill="#000000" font-family="Verdana" font-size="14" lengthAdjust="spacing" textLength="216.8975" x="229.32" y="130.1789">random_int (a : int, b : int) : int</text><ellipse cx="222.32" cy="143.1291" fill="#FFFFFF" rx="3" ry="3" style="stroke:#000000;stroke-width:1;"/><text fill="#000000" font-family="Verdana" font-size="14" lengthAdjust="spacing" textLength="209.002" x="229.32" y="146.4757">shuffle_vec (vec : vector&lt;T&gt;)</text><ellipse cx="222.32" cy="159.4259" fill="#FFFFFF" rx="3" ry="3" style="stroke:#000000;stroke-width:1;"/><text fill="#000000" font-family="Verdana" font-size="14" lengthAdjust="spacing" textLength="263.2725" x="229.32" y="162.7726">random_pop (vec : vector&lt;T&gt;) : &lt;T&gt;</text></g><!--class CTable--><g class="entity" data-entity="CTable" data-source-line="17" data-uid="ent0004" id="entity_CTable"><rect fill="#FFFFFF" height="190.6719" rx="2.5" ry="2.5" style="stroke:#000000;stroke-width:1;" width="297.5674" x="533.17" y="12"/><ellipse cx="654.0557" cy="26" fill="#FFFFFF" rx="9" ry="9" style="stroke:#000000;stroke-width:1;"/><path d="M657.0245,31.6406 Q656.4464,31.9375 655.8057,32.0781 Q655.1651,32.2344 654.462,32.2344 Q651.962,32.2344 650.6339,30.5938 Q649.3214,28.9375 649.3214,25.8125 Q649.3214,22.6875 650.6339,21.0313 Q651.962,19.375 654.462,19.375 Q655.1651,19.375 655.8057,19.5313 Q656.462,19.6875 657.0245,19.9844 L657.0245,22.7031 Q656.3995,22.125 655.8057,21.8594 Q655.212,21.5781 654.587,21.5781 Q653.2432,21.5781 652.5557,22.6563 Q651.8682,23.7188 651.8682,25.8125 Q651.8682,27.9063 652.5557,28.9844 Q653.2432,30.0469 654.587,30.0469 Q655.212,30.0469 655.8057,29.7813 Q656.3995,29.5 657.0245,28.9219 L657.0245,31.6406 Z " fill="#000000"/><text fill="#000000" font-family="Verdana" font-size="14" lengthAdjust="spacing" textLength="48.2959" x="671.5557" y="30.8467">CTable</text><line style="stroke:#000000;stroke-width:1;" x1="534.17" x2="829.7374" y1="40" y2="40"/><rect fill="none" height="6" style="stroke:#000000;stroke-width:1;" width="6" x="541.17" y="50.6484"/><text fill="#000000" font-family="Verdana" font-size="14" lengthAdjust="spacing" textLength="196.1982" x="551.17" y="56.9951">table : vector&lt;DominoTile&gt;</text><line style="stroke:#000000;stroke-width:1;" x1="534.17" x2="829.7374" y1="64.2969" y2="64.2969"/><ellipse cx="544.17" cy="77.9453" fill="#FFFFFF" rx="3" ry="3" style="stroke:#000000;stroke-width:1;"/><text fill="#000000" font-family="Verdana" font-size="14" lengthAdjust="spacing" textLength="63.6699" x="551.17" y="81.292">CTable ()</text><ellipse cx="544.17" cy="94.2422" fill="#FFFFFF" rx="3" ry="3" style="stroke:#000000;stroke-width:1;"/><text fill="#000000" font-family="Verdana" font-size="14" lengthAdjust="spacing" textLength="208.4072" x="551.17" y="97.5889">place_front (tile : DominoTile)</text><ellipse cx="544.17" cy="110.5391" fill="#FFFFFF" rx="3" ry="3" style="stroke:#000000;stroke-width:1;"/><text fill="#000000" font-family="Verdana" font-size="14" lengthAdjust="spacing" textLength="208.0654" x="551.17" y="113.8857">place_back (tile : DominoTile)</text><ellipse cx="544.17" cy="126.8359" fill="#FFFFFF" rx="3" ry="3" style="stroke:#000000;stroke-width:1;"/><text fill="#000000" font-family="Verdana" font-size="14" lengthAdjust="spacing" textLength="103.8105" x="551.17" y="130.1826">empty () : bool</text><ellipse cx="544.17" cy="143.1328" fill="#FFFFFF" rx="3" ry="3" style="stroke:#000000;stroke-width:1;"/><text fill="#000000" font-family="Verdana" font-size="14" lengthAdjust="spacing" textLength="127.4355" x="551.17" y="146.4795">head_value () : int</text><ellipse cx="544.17" cy="159.4297" fill="#FFFFFF" rx="3" ry="3" style="stroke:#000000;stroke-width:1;"/><text fill="#000000" font-family="Verdana" font-size="14" lengthAdjust="spacing" textLength="114.3311" x="551.17" y="162.7764">tail_value () : int</text><ellipse cx="544.17" cy="175.7266" fill="#FFFFFF" rx="3" ry="3" style="stroke:#000000;stroke-width:1;"/><text fill="#000000" font-family="Verdana" font-size="14" lengthAdjust="spacing" textLength="107.543" x="551.17" y="179.0732">display_table ()</text><ellipse cx="544.17" cy="192.0234" fill="#FFFFFF" rx="3" ry="3" style="stroke:#000000;stroke-width:1;"/><text fill="#000000" font-family="Verdana" font-size="14" lengthAdjust="spacing" textLength="273.5674" x="551.17" y="195.3701">get_sequence () : vector&lt;DominoTile&gt;</text></g><!--class CDominoes--><g class="entity" data-entity="CDominoes" data-source-line="30" data-uid="ent0005" id="entity_CDominoes"><rect fill="#FFFFFF" height="76.5938" rx="2.5" ry="2.5" style="stroke:#000000;stroke-width:1;" width="213.916" x="12" y="368.6"/><ellipse cx="75.2109" cy="382.6" fill="#FFFFFF" rx="9" ry="9" style="stroke:#000000;stroke-width:1;"/><path d="M78.1797,388.2406 Q77.6016,388.5375 76.9609,388.6781 Q76.3203,388.8344 75.6172,388.8344 Q73.1172,388.8344 71.7891,387.1938 Q70.4766,385.5375 70.4766,382.4125 Q70.4766,379.2875 71.7891,377.6313 Q73.1172,375.975 75.6172,375.975 Q76.3203,375.975 76.9609,376.1313 Q77.6172,376.2875 78.1797,376.5844 L78.1797,379.3031 Q77.5547,378.725 76.9609,378.4594 Q76.3672,378.1781 75.7422,378.1781 Q74.3984,378.1781 73.7109,379.2563 Q73.0234,380.3188 73.0234,382.4125 Q73.0234,384.5063 73.7109,385.5844 Q74.3984,386.6469 75.7422,386.6469 Q76.3672,386.6469 76.9609,386.3813 Q77.5547,386.1 78.1797,385.5219 L78.1797,388.2406 Z " fill="#000000"/><text fill="#000000" font-family="Verdana" font-size="14" lengthAdjust="spacing" textLength="79.9941" x="92.7109" y="387.4467">CDominoes</text><line style="stroke:#000000;stroke-width:1;" x1="13" x2="224.916" y1="396.6" y2="396.6"/><rect fill="none" height="6" style="stroke:#000000;stroke-width:1;" width="6" x="20" y="407.2484"/><text fill="#000000" font-family="Verdana" font-size="14" lengthAdjust="spacing" textLength="189.916" x="30" y="413.5951">tiles : vector&lt;DominoTile&gt;</text><line style="stroke:#000000;stroke-width:1;" x1="13" x2="224.916" y1="420.8969" y2="420.8969"/><ellipse cx="23" cy="434.5453" fill="#FFFFFF" rx="3" ry="3" style="stroke:#000000;stroke-width:1;"/><text fill="#000000" font-family="Verdana" font-size="14" lengthAdjust="spacing" textLength="95.3682" x="30" y="437.892">CDominoes ()</text></g><!--class CPlayer--><g class="entity" data-entity="CPlayer" data-source-line="36" data-uid="ent0006" id="entity_CPlayer"><rect fill="#FFFFFF" height="190.6719" rx="2.5" ry="2.5" style="stroke:#000000;stroke-width:1;" width="401.2412" x="261.34" y="311.56"/><ellipse cx="431.5402" cy="325.56" fill="#FFFFFF" rx="9" ry="9" style="stroke:#000000;stroke-width:1;"/><path d="M434.5089,331.2006 Q433.9308,331.4975 433.2902,331.6381 Q432.6496,331.7944 431.9464,331.7944 Q429.4464,331.7944 428.1183,330.1538 Q426.8058,328.4975 426.8058,325.3725 Q426.8058,322.2475 428.1183,320.5913 Q429.4464,318.935 431.9464,318.935 Q432.6496,318.935 433.2902,319.0913 Q433.9464,319.2475 434.5089,319.5444 L434.5089,322.2631 Q433.8839,321.685 433.2902,321.4194 Q432.6964,321.1381 432.0714,321.1381 Q430.7277,321.1381 430.0402,322.2163 Q429.3527,323.2788 429.3527,325.3725 Q429.3527,327.4663 430.0402,328.5444 Q430.7277,329.6069 432.0714,329.6069 Q432.6964,329.6069 433.2902,329.3413 Q433.8839,329.06 434.5089,328.4819 L434.5089,331.2006 Z " fill="#000000"/><text fill="#000000" font-family="Verdana" font-size="14" lengthAdjust="spacing" textLength="53.3408" x="449.0402" y="330.4067">CPlayer</text><line style="stroke:#000000;stroke-width:1;" x1="262.34" x2="661.5812" y1="339.56" y2="339.56"/><ellipse cx="272.34" cy="353.2084" fill="none" rx="3" ry="3" style="stroke:#000000;stroke-width:1;"/><text fill="#000000" font-family="Verdana" font-size="14" lengthAdjust="spacing" textLength="93.5088" x="279.34" y="356.5551">name : string</text><ellipse cx="272.34" cy="369.5053" fill="none" rx="3" ry="3" style="stroke:#000000;stroke-width:1;"/><text fill="#000000" font-family="Verdana" font-size="14" lengthAdjust="spacing" textLength="195.9521" x="279.34" y="372.852">hand : vector&lt;DominoTile&gt;</text><line style="stroke:#000000;stroke-width:1;" x1="262.34" x2="661.5812" y1="380.1538" y2="380.1538"/><ellipse cx="272.34" cy="393.8022" fill="#FFFFFF" rx="3" ry="3" style="stroke:#000000;stroke-width:1;"/><text fill="#000000" font-family="Verdana" font-size="14" lengthAdjust="spacing" textLength="68.7148" x="279.34" y="397.1489">CPlayer ()</text><ellipse cx="272.34" cy="410.0991" fill="#FFFFFF" rx="3" ry="3" style="stroke:#000000;stroke-width:1;"/><text fill="#000000" font-family="Verdana" font-size="14" lengthAdjust="spacing" textLength="75.9951" x="279.34" y="413.4457">~CPlayer()</text><ellipse cx="272.34" cy="426.3959" fill="#FFFFFF" rx="3" ry="3" style="stroke:#000000;stroke-width:1;"/><text fill="#000000" font-family="Verdana" font-size="14" lengthAdjust="spacing" textLength="185.3633" x="279.34" y="429.7426">add_tile (tile : DominoTile)</text><ellipse cx="272.34" cy="442.6928" fill="#FFFFFF" rx="3" ry="3" style="stroke:#000000;stroke-width:1;"/><text fill="#000000" font-family="Verdana" font-size="14" lengthAdjust="spacing" textLength="253.2031" x="279.34" y="446.0395">remove_at (index : int) : DominoTile</text><ellipse cx="272.34" cy="458.9897" fill="#FFFFFF" rx="3" ry="3" style="stroke:#000000;stroke-width:1;"/><text fill="#000000" font-family="Verdana" font-size="14" lengthAdjust="spacing" textLength="116.6006" x="279.34" y="462.3364">hand_size () : int</text><ellipse cx="272.34" cy="475.2866" fill="#FFFFFF" rx="3" ry="3" style="stroke:#000000;stroke-width:1;"/><text fill="#000000" font-family="Verdana" font-size="14" lengthAdjust="spacing" textLength="377.2412" x="279.34" y="478.6332">find_matching_index (head_val : int, tail_val : int) : int</text><ellipse cx="272.34" cy="491.5834" fill="#FFFFFF" rx="3" ry="3" style="stroke:#000000;stroke-width:1;"/><text fill="#000000" font-family="Verdana" font-size="14" lengthAdjust="spacing" textLength="107.2969" x="279.34" y="494.9301">display_hand ()</text></g><!--class CGame--><g class="entity" data-entity="CGame" data-source-line="49" data-uid="ent0007" id="entity_CGame"><rect fill="#FFFFFF" height="288.4531" rx="2.5" ry="2.5" style="stroke:#000000;stroke-width:1;" width="273.8672" x="698.02" y="262.67"/><ellipse cx="805.4765" cy="276.67" fill="#FFFFFF" rx="9" ry="9" style="stroke:#000000;stroke-width:1;"/><path d="M808.4453,282.3106 Q807.8672,282.6075 807.2265,282.7481 Q806.5859,282.9044 805.8828,282.9044 Q803.3828,282.9044 802.0547,281.2638 Q800.7422,279.6075 800.7422,276.4825 Q800.7422,273.3575 802.0547,271.7013 Q803.3828,270.045 805.8828,270.045 Q806.5859,270.045 807.2265,270.2013 Q807.8828,270.3575 808.4453,270.6544 L808.4453,273.3731 Q807.8203,272.795 807.2265,272.5294 Q806.6328,272.2481 806.0078,272.2481 Q804.664,272.2481 803.9765,273.3263 Q803.289,274.3888 803.289,276.4825 Q803.289,278.5763 803.9765,279.6544 Q804.664,280.7169 806.0078,280.7169 Q806.6328,280.7169 807.2265,280.4513 Q807.8203,280.17 808.4453,279.5919 L808.4453,282.3106 Z " fill="#000000"/><text fill="#000000" font-family="Verdana" font-size="14" lengthAdjust="spacing" textLength="51.4541" x="822.9765" y="281.5167">CGame</text><line style="stroke:#000000;stroke-width:1;" x1="699.02" x2="970.8872" y1="290.67" y2="290.67"/><rect fill="none" height="6" style="stroke:#000000;stroke-width:1;" width="6" x="706.02" y="301.3184"/><text fill="#000000" font-family="Verdana" font-size="14" lengthAdjust="spacing" textLength="105.1777" x="716.02" y="307.6651">rnd : CRandom</text><rect fill="none" height="6" style="stroke:#000000;stroke-width:1;" width="6" x="706.02" y="317.6153"/><text fill="#000000" font-family="Verdana" font-size="14" lengthAdjust="spacing" textLength="97.3711" x="716.02" y="323.962">table : CTable</text><rect fill="none" height="6" style="stroke:#000000;stroke-width:1;" width="6" x="706.02" y="333.9122"/><text fill="#000000" font-family="Verdana" font-size="14" lengthAdjust="spacing" textLength="126.916" x="716.02" y="340.2589">deck : CDominoes</text><rect fill="none" height="6" style="stroke:#000000;stroke-width:1;" width="6" x="706.02" y="350.2091"/><text fill="#000000" font-family="Verdana" font-size="14" lengthAdjust="spacing" textLength="186.1289" x="716.02" y="356.5557">players : vector&lt;CPlayer&gt;</text><rect fill="none" height="6" style="stroke:#000000;stroke-width:1;" width="6" x="706.02" y="366.5059"/><text fill="#000000" font-family="Verdana" font-size="14" lengthAdjust="spacing" textLength="223.9316" x="716.02" y="372.8526">available : vector&lt;DominoTile&gt;</text><line style="stroke:#000000;stroke-width:1;" x1="699.02" x2="970.8872" y1="380.1544" y2="380.1544"/><ellipse cx="709.02" cy="393.8028" fill="#FFFFFF" rx="3" ry="3" style="stroke:#000000;stroke-width:1;"/><text fill="#000000" font-family="Verdana" font-size="14" lengthAdjust="spacing" textLength="66.8281" x="716.02" y="397.1495">CGame ()</text><ellipse cx="709.02" cy="410.0997" fill="#FFFFFF" rx="3" ry="3" style="stroke:#000000;stroke-width:1;"/><text fill="#000000" font-family="Verdana" font-size="14" lengthAdjust="spacing" textLength="78.5586" x="716.02" y="413.4464">~CGame ()</text><ellipse cx="709.02" cy="426.3966" fill="#FFFFFF" rx="3" ry="3" style="stroke:#000000;stroke-width:1;"/><text fill="#000000" font-family="Verdana" font-size="14" lengthAdjust="spacing" textLength="45.0146" x="716.02" y="429.7432">play ()</text><rect fill="#FFFFFF" height="6" style="stroke:#000000;stroke-width:1;" width="6" x="706.02" y="439.6934"/><text fill="#000000" font-family="Verdana" font-size="14" lengthAdjust="spacing" textLength="135.4473" x="716.02" y="446.0401">create_dominoes ()</text><rect fill="#FFFFFF" height="6" style="stroke:#000000;stroke-width:1;" width="6" x="706.02" y="455.9903"/><text fill="#000000" font-family="Verdana" font-size="14" lengthAdjust="spacing" textLength="125.3711" x="716.02" y="462.337">draw_dominoes ()</text><rect fill="#FFFFFF" height="6" style="stroke:#000000;stroke-width:1;" width="6" x="706.02" y="472.2872"/><text fill="#000000" font-family="Verdana" font-size="14" lengthAdjust="spacing" textLength="110.4893" x="716.02" y="478.6339">who_first () : int</text><rect fill="#FFFFFF" height="6" style="stroke:#000000;stroke-width:1;" width="6" x="706.02" y="488.5841"/><text fill="#000000" font-family="Verdana" font-size="14" lengthAdjust="spacing" textLength="166.2773" x="716.02" y="494.9307">first_piece (starter : int)</text><rect fill="#FFFFFF" height="6" style="stroke:#000000;stroke-width:1;" width="6" x="706.02" y="504.8809"/><text fill="#000000" font-family="Verdana" font-size="14" lengthAdjust="spacing" textLength="164.4385" x="716.02" y="511.2276">run_game (starter : int)</text><rect fill="#FFFFFF" height="6" style="stroke:#000000;stroke-width:1;" width="6" x="706.02" y="521.1778"/><text fill="#000000" font-family="Verdana" font-size="14" lengthAdjust="spacing" textLength="249.8672" x="716.02" y="527.5245">player_turn (player : CPlayer) : bool</text><rect fill="#FFFFFF" height="6" style="stroke:#000000;stroke-width:1;" width="6" x="706.02" y="537.4747"/><text fill="#000000" font-family="Verdana" font-size="14" lengthAdjust="spacing" textLength="93.3105" x="716.02" y="543.8214">game_over ()</text></g><!--SRC=[XLHDJ-Cm4BtdLtXlGRize3sig10NaBYYLU_MD9aq5eaTx4dvMC5lPnpREDa6gDIaCvxFzvxxWrhiKGmTA5qKZknOaRWnlT9cfpei_XM2Fp_50CfUAas_-7jLl1P5rO5pulelwDhq7s7H5kLPTDZ9bfmbIX1RuKk8VVXn5bunqhLZqtGeZrY9qZ-sWfzaxENkwhzgWnbEGzZWrnIu4LOVsExf_EBYzv_Pk3lOpvOAPXwMKQXGDjRuQOdNvnePYsNK7ghxBuAm7-YPA_FXtfWkUbk4MXwX6p4SvUq9LBT-KYl77PybBMSz84c73oFgAgP4AF8i2OoGkHgGaGbUT1cSv4azkH3dkEyAtV6mQ7EPOEV1twBdmm5rBISSFqVJOc-EA85fKRh6fwoVcLGZn2mHwTJB2OuDPyeUg6gLFiXGfao496Kc6jO4ceZm7V8w6de_CzySBZkRuJkORZalW-IjEKHBsxVDB5GMWL3M9_JK5XvNt8-jaOsoZfQ8RCJab8D2ho17O8bv2ekdQpHgUPX6MJqU9Y8bZLQBCXWS4FbTI7yZV1d99Deyc9rGIdyXIwt6cneNGxvhsvb6v-rdWeoTa-xXo6n-eVrt]--></g></svg>