<svg xmlns="http://www.w3.org/2000/svg" xmlns:xlink="http://www.w3.org/1999/xlink" contentStyleType="text/css" data-diagram-type="CLASS" height="216px" preserveAspectRatio="none" style="width:427px;height:216px;background:#FFFFFF;" version="1.1" viewBox="0 0 427 216" width="427px" zoomAndPan="magnify"><defs/><g><!--class CPlayer--><g class="entity" data-entity="CPlayer" data-source-line="3" data-uid="ent0002" id="entity_CPlayer"><rect fill="#FFFFFF" height="190.6719" rx="2.5" ry="2.5" style="stroke:#000000;stroke-width:1;" width="401.2412" x="12" y="12"/><ellipse cx="182.2002" cy="26" fill="#FFFFFF" rx="9" ry="9" style="stroke:#000000;stroke-width:1;"/><path d="M185.1689,31.6406 Q184.5908,31.9375 183.9502,32.0781 Q183.3096,32.2344 182.6064,32.2344 Q180.1064,32.2344 178.7783,30.5938 Q177.4658,28.9375 177.4658,25.8125 Q177.4658,22.6875 178.7783,21.0313 Q180.1064,19.375 182.6064,19.375 Q183.3096,19.375 183.9502,19.5313 Q184.6064,19.6875 185.1689,19.9844 L185.1689,22.7031 Q184.5439,22.125 183.9502,21.8594 Q183.3564,21.5781 182.7314,21.5781 Q181.3877,21.5781 180.7002,22.6563 Q180.0127,23.7188 180.0127,25.8125 Q180.0127,27.9063 180.7002,28.9844 Q181.3877,30.0469 182.7314,30.0469 Q183.3564,30.0469 183.9502,29.7813 Q184.5439,29.5 185.1689,28.9219 L185.1689,31.6406 Z " fill="#000000"/><text fill="#000000" font-family="Verdana" font-size="14" lengthAdjust="spacing" textLength="53.3408" x="199.7002" y="30.8467">CPlayer</text><line style="stroke:#000000;stroke-width:1;" x1="13" x2="412.2412" y1="40" y2="40"/><ellipse cx="23" cy="53.6484" fill="none" rx="3" ry="3" style="stroke:#000000;stroke-width:1;"/><text fill="#000000" font-family="Verdana" font-size="14" lengthAdjust="spacing" textLength="93.5088" x="30" y="56.9951">name : string</text><ellipse cx="23" cy="69.9453" fill="none" rx="3" ry="3" style="stroke:#000000;stroke-width:1;"/><text fill="#000000" font-family="Verdana" font-size="14" lengthAdjust="spacing" textLength="195.9521" x="30" y="73.292">hand : vector&lt;DominoTile&gt;</text><line style="stroke:#000000;stroke-width:1;" x1="13" x2="412.2412" y1="80.5938" y2="80.5938"/><ellipse cx="23" cy="94.2422" fill="#FFFFFF" rx="3" ry="3" style="stroke:#000000;stroke-width:1;"/><text fill="#000000" font-family="Verdana" font-size="14" lengthAdjust="spacing" textLength="68.7148" x="30" y="97.5889">CPlayer ()</text><ellipse cx="23" cy="110.5391" fill="#FFFFFF" rx="3" ry="3" style="stroke:#000000;stroke-width:1;"/><text fill="#000000" font-family="Verdana" font-size="14" lengthAdjust="spacing" textLength="75.9951" x="30" y="113.8857">~CPlayer()</text><ellipse cx="23" cy="126.8359" fill="#FFFFFF" rx="3" ry="3" style="stroke:#000000;stroke-width:1;"/><text fill="#000000" font-family="Verdana" font-size="14" lengthAdjust="spacing" textLength="172.3682" x="30" y="130.1826">add_tile (p : DominoTile)</text><ellipse cx="23" cy="143.1328" fill="#FFFFFF" rx="3" ry="3" style="stroke:#000000;stroke-width:1;"/><text fill="#000000" font-family="Verdana" font-size="14" lengthAdjust="spacing" textLength="253.2031" x="30" y="146.4795">remove_at (index : int) : DominoTile</text><ellipse cx="23" cy="159.4297" fill="#FFFFFF" rx="3" ry="3" style="stroke:#000000;stroke-width:1;"/><text fill="#000000" font-family="Verdana" font-size="14" lengthAdjust="spacing" textLength="116.6006" x="30" y="162.7764">hand_size () : int</text><ellipse cx="23" cy="175.7266" fill="#FFFFFF" rx="3" ry="3" style="stroke:#000000;stroke-width:1;"/><text fill="#000000" font-family="Verdana" font-size="14" lengthAdjust="spacing" textLength="377.2412" x="30" y="179.0732">find_matching_index (head_val : int, tail_val : int) : int</text><ellipse cx="23" cy="192.0234" fill="#FFFFFF" rx="3" ry="3" style="stroke:#000000;stroke-width:1;"/><text fill="#000000" font-family="Verdana" font-size="14" lengthAdjust="spacing" textLength="107.2969" x="30" y="195.3701">display_hand ()</text></g><!--SRC=[LOyn3i8m34NtdC9ihU045MA10p2mHrPZgAKqgHAheY0uEqPjAStslr- -_JVIK4lGUUHWJEqnPpYUFGwKpDE0lksieIWdupqvFmETiyAUeEYWWbDiESIBwdcUg8qzMHGeE3YwAyH1oXKxeGq6PpC_DAiSiMbmrP-sHQaR3ZSxnXGDeRCz-f7SWI3xHQy376UjETZlXgLBGArVGPQaiNytgDTJBJ7jbnCFvlK1]--></g></svg>