<svg xmlns="http://www.w3.org/2000/svg" xmlns:xlink="http://www.w3.org/1999/xlink" contentStyleType="text/css" data-diagram-type="CLASS" height="151px" preserveAspectRatio="none" style="width:313px;height:151px;background:#FFFFFF;" version="1.1" viewBox="0 0 313 151" width="313px" zoomAndPan="magnify"><defs/><g><!--class CRandom--><g class="entity" data-entity="CRandom" data-source-line="3" data-uid="ent0002" id="entity_CRandom"><rect fill="#FFFFFF" height="125.4844" rx="2.5" ry="2.5" style="stroke:#000000;stroke-width:1;" width="287.2725" x="12" y="12"/><ellipse cx="117.8638" cy="26" fill="#FFFFFF" rx="9" ry="9" style="stroke:#000000;stroke-width:1;"/><path d="M120.8325,31.6406 Q120.2544,31.9375 119.6138,32.0781 Q118.9731,32.2344 118.27,32.2344 Q115.77,32.2344 114.4419,30.5938 Q113.1294,28.9375 113.1294,25.8125 Q113.1294,22.6875 114.4419,21.0313 Q115.77,19.375 118.27,19.375 Q118.9731,19.375 119.6138,19.5313 Q120.27,19.6875 120.8325,19.9844 L120.8325,22.7031 Q120.2075,22.125 119.6138,21.8594 Q119.02,21.5781 118.395,21.5781 Q117.0513,21.5781 116.3638,22.6563 Q115.6763,23.7188 115.6763,25.8125 Q115.6763,27.9063 116.3638,28.9844 Q117.0513,30.0469 118.395,30.0469 Q119.02,30.0469 119.6138,29.7813 Q120.2075,29.5 120.8325,28.9219 L120.8325,31.6406 Z " fill="#000000"/><text fill="#000000" font-family="Verdana" font-size="14" lengthAdjust="spacing" textLength="68.0449" x="135.3638" y="30.8467">CRandom</text><line style="stroke:#000000;stroke-width:1;" x1="13" x2="298.2725" y1="40" y2="40"/><rect fill="none" height="6" style="stroke:#000000;stroke-width:1;" width="6" x="20" y="50.6484"/><text fill="#000000" font-family="Verdana" font-size="14" lengthAdjust="spacing" textLength="100.7959" x="30" y="56.9951">rng : mt19937</text><line style="stroke:#000000;stroke-width:1;" x1="13" x2="298.2725" y1="64.2969" y2="64.2969"/><ellipse cx="23" cy="77.9453" fill="#FFFFFF" rx="3" ry="3" style="stroke:#000000;stroke-width:1;"/><text fill="#000000" font-family="Verdana" font-size="14" lengthAdjust="spacing" textLength="83.4189" x="30" y="81.292">CRandom ()</text><ellipse cx="23" cy="94.2422" fill="#FFFFFF" rx="3" ry="3" style="stroke:#000000;stroke-width:1;"/><text fill="#000000" font-family="Verdana" font-size="14" lengthAdjust="spacing" textLength="216.8975" x="30" y="97.5889">random_int (a : int, b : int) : int</text><ellipse cx="23" cy="110.5391" fill="#FFFFFF" rx="3" ry="3" style="stroke:#000000;stroke-width:1;"/><text fill="#000000" font-family="Verdana" font-size="14" lengthAdjust="spacing" textLength="209.002" x="30" y="113.8857">shuffle_vec (vec : vector&lt;T&gt;)</text><ellipse cx="23" cy="126.8359" fill="#FFFFFF" rx="3" ry="3" style="stroke:#000000;stroke-width:1;"/><text fill="#000000" font-family="Verdana" font-size="14" lengthAdjust="spacing" textLength="263.2725" x="30" y="130.1826">random_pop (vec : vector&lt;T&gt;) : &lt;T&gt;</text></g><!--SRC=[Kop9ICrDLIZ8ISpCu-9ApaaiBbPm3ahCIydFvQhcKW02RHXVGKCJAb04viTdvfKeQ2GgM2a06JeAIH269eI2gYpEA4rBoqcDBqjDLj004LOAGB8alyWcn0xDj8By0ambG0wG0YlKLIZAImVoSqiCBIsDpRbg0G00]--></g></svg>