<svg xmlns="http://www.w3.org/2000/svg" xmlns:xlink="http://www.w3.org/1999/xlink" contentStyleType="text/css" data-diagram-type="CLASS" height="86px" preserveAspectRatio="none" style="width:141px;height:86px;background:#FFFFFF;" version="1.1" viewBox="0 0 141 86" width="141px" zoomAndPan="magnify"><defs/><g><!--class DominoTile--><g class="entity" data-entity="DominoTile" data-source-line="3" data-uid="ent0002" id="entity_DominoTile"><rect fill="#FFFFFF" height="60.2969" rx="2.5" ry="2.5" style="stroke:#000000;stroke-width:1;" width="115.5264" x="12" y="12"/><ellipse cx="28.7217" cy="26" fill="#FFFFFF" rx="9" ry="9" style="stroke:#000000;stroke-width:1;"/><path d="M28.2061,26.5625 Q26.3467,25.8594 25.6905,25.0938 Q25.0499,24.3125 25.0499,23 Q25.0499,21.3125 26.128,20.3438 Q27.2061,19.375 29.0811,19.375 Q29.9405,19.375 30.7842,19.5781 Q31.6436,19.7656 32.4874,20.1563 L32.4874,22.5469 Q31.7061,21.9844 30.878,21.7031 Q30.0655,21.4063 29.2686,21.4063 Q28.3936,21.4063 27.9092,21.7656 Q27.4405,22.125 27.4405,22.7813 Q27.4405,23.2969 27.7842,23.6406 Q28.128,23.9688 29.2217,24.375 L30.2842,24.7813 Q31.7686,25.3281 32.4717,26.2344 Q33.1905,27.1406 33.1905,28.5156 Q33.1905,30.3906 32.0811,31.3125 Q30.9717,32.2344 28.7217,32.2344 Q27.7999,32.2344 26.878,32.0156 Q25.9561,31.7969 25.0967,31.375 L25.0967,28.8438 Q26.0655,29.5313 26.9874,29.875 Q27.9092,30.2188 28.7999,30.2188 Q29.7061,30.2188 30.2061,29.8125 Q30.7061,29.3906 30.7061,28.6563 Q30.7061,28.0938 30.3624,27.6875 Q30.0342,27.2656 29.4092,27.0156 L28.2061,26.5625 Z " fill="#000000"/><text fill="#000000" font-family="Verdana" font-size="14" lengthAdjust="spacing" textLength="79.2559" x="41.5488" y="30.8467">DominoTile</text><line style="stroke:#000000;stroke-width:1;" x1="13" x2="126.5264" y1="40" y2="40"/><ellipse cx="23" cy="53.6484" fill="none" rx="3" ry="3" style="stroke:#000000;stroke-width:1;"/><text fill="#000000" font-family="Verdana" font-size="14" lengthAdjust="spacing" textLength="91.5264" x="30" y="56.9951">pair&lt;int,int&gt;</text><line style="stroke:#000000;stroke-width:1;" x1="13" x2="126.5264" y1="64.2969" y2="64.2969"/></g><!--SRC=[Kop9ICrDLIZ8ISpCu-8gBYagJIvHSCdFpSpB3ydCIUMgvb800cs5WiJC8flCl18T8BRZgWK0]--></g></svg>